<svg width="24" height="24" viewBox="0 0 24 24" fill="none" xmlns="http://www.w3.org/2000/svg">
<path fill-rule="evenodd" clip-rule="evenodd" d="M4 12C4 7.58172 7.58172 4 12 4C16.4183 4 20 7.58172 20 12C20 16.4183 16.4183 20 12 20C7.58172 20 4 16.4183 4 12ZM12 2C6.47715 2 2 6.47715 2 12C2 17.5228 6.47715 22 12 22C17.5228 22 22 17.5228 22 12C22 6.47715 17.5228 2 12 2ZM12.1094 8.20442C10.7803 7.31834 9 8.27113 9 9.86852V14.1315C9 15.7289 10.7803 16.6817 12.1094 15.7956L15.3066 13.6641C16.4941 12.8725 16.4941 11.1275 15.3066 10.3359L12.1094 8.20442Z" fill="#7371FF"/>
</svg>
